<svg xmlns="http://www.w3.org/2000/svg" xmlns:xlink="http://www.w3.org/1999/xlink" width="4913" height="843"><path fill="#1DB9DD" d="M3658.06 226.5C3666.1 225.903 3674.14 225.741 3682.19 225.559C3682.54 226.124 3682.86 226.677 3683.11 227.294C3685.31 232.703 3684.68 366.558 3683.79 381.816C3683.68 383.628 3683.17 385.244 3682.45 386.899C3677.32 385.662 3671.37 385.689 3666.1 385.32C3637.28 383.303 3607.58 385.003 3580.05 394.365C3556.29 402.445 3534.99 416.246 3519.24 435.925C3476.69 489.08 3485.23 564.375 3485.24 628.288L3485.19 777.025C3485.26 788.234 3487.9 827.391 3483.63 836.077L3309.15 836.078C3309.54 835.433 3309.9 834.741 3310.08 834.009C3311.61 827.923 3311.61 790.232 3308.64 785.5C3309.18 784.632 3309.7 783.702 3309.96 782.702C3312.05 774.693 3310.4 702.841 3310.4 687.121L3310.41 384.999C3310.41 367.617 3311.9 239.997 3309.08 234.887L3475.27 234.887C3475.84 235.821 3476.32 236.777 3476.61 237.84C3478.54 244.879 3477.75 300.398 3476.84 309.509C3476.69 311.091 3476.12 312.462 3475.37 313.843C3482 309.922 3498.27 288.715 3506.55 281.687C3549.54 245.192 3602.86 230.787 3658.06 226.5Z"></path><path fill="white" d="M1983.4 5.49925C1996.12 2.9237 2022.33 4.76579 2036.25 4.76782L2157.29 4.81923C2157.83 5.69319 2158.28 6.60427 2158.54 7.6012C2160.74 15.966 2159.11 55.0568 2159.11 66.7499L2159.12 233.188L2159.12 630.566L2159.11 761.45C2159.11 783.462 2159.87 805.78 2159.02 827.763C2158.9 830.757 2158.57 831.451 2157.01 833.93C2099.11 835.559 2040.82 834.137 1982.88 834.113C1983.24 833.604 1983.54 833.092 1983.8 832.517C1984.77 830.286 1986.19 12.2777 1983.4 5.49925Z"></path><path fill="white" d="M1702.45 5.49878C1714.97 2.93676 1741.06 4.76506 1754.79 4.76706L1877.17 4.81923C1877.57 5.44632 1877.96 6.12684 1878.16 6.85318C1880.06 14.0232 1878.51 36.5175 1878.51 45.293L1878.52 155.441L1878.53 640.037C1878.53 657.608 1880.24 827.39 1877.24 832.517C1876.94 832.906 1876.53 832.873 1876.06 832.985L1876.19 833.862C1857.3 835.455 1837.29 834.144 1818.3 834.143L1701.98 834.113C1702.35 833.524 1702.68 832.945 1702.94 832.3C1705.59 825.817 1703.79 636.019 1703.79 612.747L1703.79 15.4734C1703.76 11.9522 1703.9 8.79646 1702.45 5.49878Z"></path><path fill="#1DB9DD" d="M2473.64 0L2561.9 0C2583.05 4.64855 2636.99 13.0255 2651.03 30.2306C2651.12 30.7053 2651.21 31.2309 2651.19 31.7141C2651 36.5928 2607.85 153.852 2605.32 156.584C2601.87 153.035 2596.19 150.341 2591.81 148.124C2566.25 135.189 2531.05 130.899 2503.61 140.073C2469.24 151.568 2456.64 184.851 2456.44 218.708C2456.39 226.214 2458.63 241.314 2455.26 247.534C2455.17 247.706 2455.07 247.874 2454.97 248.044L2609.2 248.044C2609.81 248.965 2610.32 249.952 2610.53 251.047C2612.65 262.004 2610.94 281.533 2610.94 293.721C2610.96 321.369 2612.46 350.022 2610.76 377.551C2610.64 379.427 2610.17 380.849 2609.17 382.434L2459.35 382.462C2459.85 383.363 2460.28 384.298 2460.52 385.303C2462.55 393.839 2460.92 412.435 2460.92 421.85L2460.94 518.98L2460.93 729.837L2460.92 796.656C2460.91 808.151 2461.58 820.133 2460.73 831.577C2460.6 833.282 2460.07 834.631 2459.2 836.078L2284.68 836.078C2284.94 835.643 2284.96 835.63 2285.15 835.21C2287.19 830.535 2287.35 422.342 2286.12 388.555C2286.04 386.339 2285.65 384.502 2284.85 382.434L2191.9 382.434C2192.4 381.598 2192.81 380.771 2193.12 379.847C2194.89 374.514 2194.39 264.77 2193.62 253.066C2193.5 251.213 2192.99 249.682 2192.15 248.044L2284.43 248.044C2288.76 241.087 2285.94 217.062 2286.36 208.043C2286.75 199.726 2287.68 191.315 2288.7 183.05Q2289.57 175.816 2290.87 168.648Q2292.18 161.481 2293.92 154.407Q2295.66 147.332 2297.83 140.377Q2300 133.422 2302.59 126.613C2325.28 67.7188 2371.77 27.7976 2431.3 9.72055C2440.4 6.9562 2468.73 2.30346 2473.27 0.187517C2473.4 0.128543 2473.52 0.0625056 2473.64 0Z"></path><path fill="#1DB9DD" d="M3968.66 843C3968.54 842.937 3968.42 842.87 3968.3 842.81C3962.66 840.108 3935.73 837.239 3926.95 835.444C3917.75 833.563 3908.59 830.779 3899.61 828.035C3809.48 800.506 3734.7 736.456 3701.28 647.417C3672.32 570.217 3674.86 479.616 3709.07 404.51C3742.41 331.327 3805.25 277.21 3880.08 249.302C3967.37 216.745 4076.93 215.718 4162.34 254.903C4206.03 274.943 4242.89 305.628 4269.06 346.076C4274.81 354.949 4280.75 364.416 4284.5 374.327C4285.04 375.766 4285.37 377.38 4285.19 378.915C4281.79 382.104 4160.16 448.439 4149.79 451.978C4149.34 440.949 4124.78 415.044 4116.42 407.373C4086.15 379.59 4048.14 367.308 4007.27 369.237C3966.19 371.175 3927.3 387.054 3899.41 417.801C3867.49 453.005 3856.43 500.933 3858.78 547.362C3860.99 590.943 3876.83 633.555 3909.8 663.245C3940.67 691.045 3983.07 703.757 4024.24 701.594C4063.9 699.51 4100.05 683.352 4126.66 653.602C4131.81 647.843 4149.67 626.67 4149.55 619.742C4149.54 619.265 4149.5 619.068 4149.42 618.632C4162.98 624.092 4283.25 689.826 4285.25 692.881C4286.31 702.081 4262.76 734.67 4256.1 743.054C4218.51 790.435 4164.76 820.496 4106.55 834.802C4091.74 838.442 4076.46 839.67 4061.68 843L3968.66 843Z"></path><path fill="white" d="M1327.71 843C1327.59 842.947 1327.46 842.89 1327.33 842.84C1321.21 840.466 1300.89 840.137 1293.14 839.21Q1274.69 836.93 1256.56 832.802C1161.91 811.418 1079.3 755.115 1037.73 665.653C1003.01 590.935 1000.51 499.212 1028.8 422.051Q1030.06 418.618 1031.41 415.217Q1032.75 411.816 1034.18 408.449Q1035.61 405.083 1037.12 401.753Q1038.64 398.422 1040.23 395.13Q1041.82 391.839 1043.5 388.587Q1045.17 385.336 1046.93 382.127Q1048.68 378.918 1050.52 375.754Q1052.35 372.589 1054.26 369.471Q1056.17 366.353 1058.16 363.283Q1060.15 360.213 1062.21 357.193Q1064.28 354.173 1066.41 351.206Q1068.55 348.238 1070.76 345.324Q1072.97 342.41 1075.25 339.551Q1077.54 336.693 1079.89 333.892Q1082.24 331.091 1084.66 328.348Q1087.08 325.606 1089.57 322.925Q1092.06 320.244 1094.61 317.625Q1097.16 315.005 1099.78 312.45Q1102.4 309.895 1105.07 307.406Q1107.75 304.916 1110.49 302.494Q1113.23 300.071 1116.03 297.717Q1118.83 295.363 1121.69 293.079Q1124.55 290.795 1127.46 288.583Q1130.37 286.37 1133.34 284.23Q1136.3 282.09 1139.32 280.024Q1142.34 277.959 1145.41 275.968Q1148.48 273.977 1151.59 272.063Q1154.71 270.149 1157.87 268.313Q1161.03 266.477 1164.24 264.719Q1167.45 262.962 1170.7 261.284Q1173.95 259.606 1177.24 258.01Q1180.53 256.413 1183.86 254.898C1266.02 216.851 1367.04 213.13 1451.99 244.416C1524.1 270.979 1582.09 322.945 1614.35 392.92C1637.61 443.369 1647.01 501.662 1642.61 556.931C1642.03 564.105 1642.48 574.745 1639.94 581.243C1639.69 581.879 1639.37 582.339 1638.97 582.886L1183.35 582.888L1183.58 583.181C1188.27 589.259 1188.57 596.392 1191.19 603.295C1193.41 609.14 1196.48 614.886 1199.34 620.44C1224.23 668.628 1272.62 693.97 1324.88 701.029C1385.44 709.212 1443.81 696.051 1492.69 658.634C1496.36 655.83 1506.01 649.116 1507.16 644.924C1514.45 649.971 1598.15 740.593 1600.41 745.532C1599.23 749.321 1595.04 752.84 1592.29 755.699C1573 775.711 1549.55 792.573 1524.98 805.459C1489.76 823.931 1451.67 834.095 1412.4 839.27C1400.34 840.859 1387.7 840.89 1375.8 843L1327.71 843ZM1312.15 356.499C1303.25 358.254 1293.98 359.298 1285.24 361.692Q1283.77 362.093 1282.31 362.527Q1280.84 362.961 1279.39 363.427Q1277.94 363.894 1276.5 364.392Q1275.06 364.89 1273.63 365.42Q1272.2 365.95 1270.78 366.512Q1269.36 367.073 1267.96 367.666Q1266.55 368.259 1265.16 368.882Q1263.77 369.506 1262.39 370.161Q1261.01 370.815 1259.65 371.5Q1258.29 372.185 1256.94 372.899Q1255.59 373.614 1254.26 374.359Q1252.93 375.103 1251.62 375.877Q1250.3 376.65 1249 377.453Q1247.71 378.256 1246.43 379.087Q1245.15 379.918 1243.89 380.777Q1242.63 381.636 1241.39 382.523Q1240.15 383.41 1238.93 384.325Q1237.71 385.239 1236.51 386.18Q1235.31 387.121 1234.13 388.088Q1232.95 389.055 1231.79 390.049Q1230.63 391.042 1229.5 392.06Q1228.36 393.079 1227.25 394.123Q1226.14 395.166 1225.05 396.234Q1223.96 397.302 1222.9 398.393Q1221.83 399.485 1220.79 400.6Q1219.75 401.715 1218.74 402.853Q1217.72 403.991 1216.73 405.151Q1215.74 406.311 1214.77 407.492Q1213.81 408.674 1212.87 409.877Q1211.94 411.079 1211.02 412.302Q1210.11 413.526 1209.23 414.769Q1208.35 416.012 1207.49 417.274C1201.03 426.918 1194.92 438.263 1190.84 449.172C1187.72 457.505 1186.58 474.727 1181.57 480.928L1348.75 480.928L1477.67 480.914C1481.01 470.609 1468.42 442.06 1463.47 432.35Q1462.7 430.82 1461.88 429.309Q1461.07 427.799 1460.22 426.309Q1459.37 424.82 1458.48 423.352Q1457.6 421.884 1456.67 420.438Q1455.75 418.993 1454.79 417.571Q1453.83 416.15 1452.84 414.752Q1451.84 413.355 1450.81 411.983Q1449.78 410.611 1448.72 409.265Q1447.66 407.919 1446.56 406.6Q1445.47 405.281 1444.34 403.99Q1443.21 402.699 1442.05 401.437Q1440.89 400.174 1439.69 398.941Q1438.5 397.708 1437.28 396.505Q1436.06 395.302 1434.8 394.13Q1433.55 392.958 1432.27 391.818Q1430.99 390.678 1429.68 389.57Q1428.37 388.462 1427.04 387.387Q1425.7 386.312 1424.34 385.271Q1422.97 384.23 1421.58 383.224Q1420.2 382.217 1418.78 381.245Q1417.37 380.274 1415.93 379.338Q1414.49 378.402 1413.03 377.502Q1411.57 376.602 1410.09 375.739Q1408.61 374.876 1407.11 374.05Q1405.6 373.225 1404.08 372.437Q1402.56 371.649 1401.01 370.9Q1399.47 370.15 1397.91 369.439Q1396.35 368.729 1394.77 368.057Q1393.19 367.386 1391.6 366.754Q1390 366.122 1388.4 365.53Q1386.79 364.938 1385.16 364.387Q1383.54 363.836 1381.9 363.325C1358.97 356.014 1335.93 355.005 1312.15 356.499Z"></path><path fill="#1DB9DD" d="M2872.69 843C2872.57 842.936 2872.45 842.868 2872.32 842.807C2866.29 839.91 2840.75 837.27 2831.69 835.4C2822.39 833.479 2813.09 830.49 2804.04 827.648C2714.74 799.622 2641.68 735.12 2608.76 646.813C2580.08 569.858 2582.73 478.843 2616.95 404.087C2650.52 330.767 2712.86 276.481 2788.02 248.541C2878.58 214.877 2987.37 217.708 3075.36 258.039Q3078.69 259.527 3081.97 261.097Q3085.26 262.668 3088.51 264.319Q3091.76 265.97 3094.97 267.701Q3098.17 269.432 3101.33 271.242Q3104.5 273.052 3107.61 274.939Q3110.73 276.827 3113.8 278.791Q3116.87 280.756 3119.89 282.795Q3122.91 284.835 3125.88 286.949Q3128.84 289.063 3131.76 291.249Q3134.67 293.436 3137.53 295.694Q3140.39 297.953 3143.2 300.281Q3146 302.609 3148.74 305.006Q3151.49 307.403 3154.17 309.868Q3156.86 312.332 3159.48 314.862Q3162.1 317.392 3164.66 319.986Q3167.22 322.58 3169.71 325.237Q3172.21 327.894 3174.64 330.611Q3177.06 333.329 3179.42 336.106Q3181.78 338.883 3184.07 341.718Q3186.36 344.552 3188.58 347.443Q3190.8 350.333 3192.95 353.277Q3195.09 356.222 3197.17 359.219Q3199.24 362.215 3201.24 365.262Q3203.24 368.31 3205.16 371.405Q3207.08 374.501 3208.92 377.643Q3210.77 380.786 3212.54 383.973Q3214.3 387.16 3215.99 390.39Q3217.68 393.619 3219.28 396.89Q3220.89 400.161 3222.42 403.47Q3223.94 406.779 3225.38 410.126Q3226.83 413.472 3228.19 416.853Q3229.54 420.233 3230.82 423.647C3259.52 501.076 3256.84 592.428 3222.32 667.57C3188.83 740.466 3126.71 794.738 3051.82 822.397Q3037.99 827.565 3023.76 831.471Q3009.53 835.376 2995 837.987C2985.05 839.823 2974.69 840.877 2964.83 843L2872.69 843ZM2905.79 369.5C2863.44 374.922 2826.95 390.588 2800.25 425.211C2770.91 463.265 2761.55 515.627 2767.68 562.66C2773.18 604.797 2791.8 645.061 2826.14 671.289C2850.94 690.234 2898.08 706.735 2929.85 701.509C2929.98 701.487 2930.11 701.452 2930.25 701.424C2970.75 698.589 3007.48 683.092 3034.36 652.035C3066.32 615.121 3076.28 564.487 3072.76 516.886C3069.63 474.592 3052.49 432.232 3019.92 404.158C2987.59 376.278 2947.61 367.327 2905.79 369.5Z"></path><path fill="white" d="M0 232.731L164.513 232.698C171.558 250.574 177.438 269.037 183.762 287.191L217.711 384.578L306.438 638.821C334.445 565.711 360.089 491.504 386.782 417.894C409.135 356.255 432.951 294.826 453.848 232.698L601.586 232.698C619.465 277.38 634.988 326.964 651.047 372.666L744.907 639.519C756.103 603.463 770.356 567.876 783.16 532.342L856.192 329.662L878.217 268.522C881.929 258.22 886.234 247.827 889.368 237.356C889.841 235.776 889.873 234.24 889.292 232.698L1043.99 232.698C1044.47 234.891 1044.19 236.365 1043.52 238.469C1037.39 257.576 1029.89 276.459 1023.04 295.331L983.411 404.494L864.289 732.939C852.668 764.988 837.443 801.844 827.915 834.113L659.87 834.113C626.13 745.758 595.178 656.119 562.951 567.189C550.21 532.031 538.717 495.606 524.333 461.116C511.353 500.061 495.61 538.553 481.147 576.999C448.942 662.602 415.985 748.088 384.956 834.113L216.916 834.105L59.8807 398.654L18.1861 283.028C13.596 270.212 6.15973 244.096 0 233.739L0 232.731Z"></path><path fill="#1DB9DD" d="M4570.75 843C4568.92 841.243 4534.65 836.855 4529.15 835.744C4518.32 833.558 4507.37 830.5 4496.81 827.256C4448.18 812.318 4402.88 787.273 4366.26 751.729C4308.84 695.981 4279.56 619.457 4278.52 540.007C4277.44 458.461 4305.63 378.99 4362.95 320.199C4424.07 257.505 4508.95 226.661 4595.66 225.584C4679 224.549 4763.62 251.72 4823.97 310.621C4878.5 363.836 4910.97 441.828 4911.87 517.998L4912.75 517.998C4913.14 528.403 4913.81 539.756 4912.71 550.096C4913.54 567.175 4913.03 584.468 4913.04 601.579L4913.06 692.423L4913.05 787.374C4913.05 804.174 4913.6 821.162 4912.87 837.932C4912.79 839.769 4912.17 841.424 4911.25 843L4670.75 843L4570.75 843ZM4911.82 550.096C4911.68 557.974 4912.26 578.398 4907.7 584.466L4452.65 584.466C4452.79 584.678 4452.95 584.889 4453.09 585.103C4459.22 594.143 4460.51 607.629 4465.6 617.714C4488.26 662.634 4527.92 689.619 4576.63 700.077C4632.06 711.979 4696 704.375 4744 673.248C4749.75 669.516 4774.17 652.877 4775.58 647.384C4775.64 647.173 4775.67 646.957 4775.71 646.743C4782.44 650.803 4867.78 743.683 4869.03 747.588C4865.73 760.209 4818.41 793.502 4805.48 801.079Q4799.89 804.293 4794.18 807.27Q4788.46 810.246 4782.62 812.981Q4776.79 815.716 4770.84 818.203Q4764.9 820.691 4758.85 822.927Q4752.81 825.163 4746.67 827.143Q4740.54 829.124 4734.33 830.846Q4728.12 832.568 4721.84 834.028Q4715.56 835.488 4709.23 836.683C4696.71 839.07 4682.96 839.926 4670.75 843L4911.25 843C4912.17 841.424 4912.79 839.769 4912.87 837.932C4913.6 821.162 4913.05 804.174 4913.05 787.374L4913.06 692.423L4913.04 601.579C4913.03 584.468 4913.54 567.175 4912.71 550.096L4911.82 550.096ZM4583.28 358.5C4542.51 364.13 4506.7 378.945 4481.11 412.561C4472.36 424.056 4464.38 438.011 4459.85 451.754C4456.92 460.622 4455.99 474.528 4450.78 481.886C4450.64 482.085 4450.5 482.291 4450.36 482.489C4450.28 482.609 4450.18 482.721 4450.09 482.837L4613.75 482.837L4746.54 482.837C4749.59 475.353 4740.09 451.552 4736.61 443.277Q4735.95 441.714 4735.26 440.168Q4734.56 438.622 4733.83 437.094Q4733.1 435.565 4732.33 434.055Q4731.56 432.546 4730.75 431.055Q4729.94 429.565 4729.1 428.095Q4728.25 426.625 4727.37 425.176Q4726.49 423.728 4725.58 422.301Q4724.66 420.875 4723.71 419.472Q4722.76 418.068 4721.78 416.689Q4720.79 415.31 4719.77 413.955Q4718.75 412.6 4717.7 411.271Q4716.65 409.942 4715.57 408.64Q4714.48 407.337 4713.36 406.062Q4712.25 404.786 4711.1 403.539Q4709.95 402.291 4708.77 401.073Q4707.6 399.854 4706.39 398.665Q4705.18 397.476 4703.94 396.317Q4702.71 395.158 4701.44 394.03Q4700.18 392.902 4698.88 391.805Q4697.59 390.709 4696.27 389.645Q4694.95 388.58 4693.61 387.549Q4692.26 386.518 4690.89 385.52Q4689.52 384.523 4688.13 383.559Q4686.73 382.596 4685.31 381.667Q4683.9 380.739 4682.46 379.845Q4681.01 378.952 4679.55 378.094Q4678.09 377.237 4676.61 376.416Q4675.12 375.595 4673.62 374.811Q4672.12 374.027 4670.6 373.28Q4669.08 372.533 4667.54 371.824Q4666 371.115 4664.44 370.445Q4662.88 369.774 4661.31 369.142C4636.26 359.024 4610.04 356.747 4583.28 358.5ZM4911.87 517.998Q4911.65 534.047 4911.82 550.096L4912.71 550.096C4913.81 539.756 4913.14 528.403 4912.75 517.998L4911.87 517.998Z"></path><path fill="#1DB9DD" fill-opacity="0.56078434" d="M4911.87 517.998L4912.75 517.998C4913.14 528.403 4913.81 539.756 4912.71 550.096L4911.82 550.096Q4911.65 534.047 4911.87 517.998Z"></path></svg>